<mxfile host="app.diagrams.net" agent="Mozilla/5.0 (Windows NT 10.0; Win64; x64) AppleWebKit/537.36 (KHTML, like Gecko) Chrome/131.0.0.0 Safari/537.36" version="24.8.8">
  <diagram id="C5RBs43oDa-KdzZeNtuy" name="Page-1">
    <mxGraphModel dx="-145" dy="551" grid="1" gridSize="15" guides="1" tooltips="1" connect="1" arrows="1" fold="1" page="1" pageScale="1" pageWidth="1169" pageHeight="827" math="0" shadow="0">
      <root>
        <mxCell id="WIyWlLk6GJQsqaUBKTNV-0" />
        <mxCell id="WIyWlLk6GJQsqaUBKTNV-1" parent="WIyWlLk6GJQsqaUBKTNV-0" />
        <mxCell id="zZQvNKMM1_MNGovXTg1E-174" style="edgeStyle=orthogonalEdgeStyle;rounded=0;orthogonalLoop=1;jettySize=auto;html=1;exitX=1;exitY=0.25;exitDx=0;exitDy=0;endArrow=oval;endFill=0;" edge="1" parent="WIyWlLk6GJQsqaUBKTNV-1" source="zZQvNKMM1_MNGovXTg1E-160">
          <mxGeometry relative="1" as="geometry">
            <mxPoint x="1500" y="75" as="targetPoint" />
          </mxGeometry>
        </mxCell>
        <mxCell id="zZQvNKMM1_MNGovXTg1E-175" style="edgeStyle=orthogonalEdgeStyle;rounded=0;orthogonalLoop=1;jettySize=auto;html=1;exitX=1;exitY=0.5;exitDx=0;exitDy=0;endArrow=oval;endFill=0;" edge="1" parent="WIyWlLk6GJQsqaUBKTNV-1" source="zZQvNKMM1_MNGovXTg1E-160">
          <mxGeometry relative="1" as="geometry">
            <mxPoint x="1515" y="103" as="targetPoint" />
          </mxGeometry>
        </mxCell>
        <mxCell id="zZQvNKMM1_MNGovXTg1E-185" value="&amp;nbsp; &amp;nbsp;idMATRICULA" style="text;html=1;align=center;verticalAlign=middle;resizable=0;points=[];autosize=1;strokeColor=none;fillColor=none;fontSize=12;fontFamily=Verdana;fontStyle=1" vertex="1" parent="WIyWlLk6GJQsqaUBKTNV-1">
          <mxGeometry x="1518" y="46" width="120" height="30" as="geometry" />
        </mxCell>
        <mxCell id="zZQvNKMM1_MNGovXTg1E-176" style="edgeStyle=orthogonalEdgeStyle;rounded=0;orthogonalLoop=1;jettySize=auto;html=1;exitX=1;exitY=0.75;exitDx=0;exitDy=0;endArrow=oval;endFill=0;" edge="1" parent="WIyWlLk6GJQsqaUBKTNV-1" source="zZQvNKMM1_MNGovXTg1E-160">
          <mxGeometry relative="1" as="geometry">
            <mxPoint x="1500" y="123.56521739130437" as="targetPoint" />
          </mxGeometry>
        </mxCell>
        <mxCell id="zZQvNKMM1_MNGovXTg1E-186" value="NOME" style="text;html=1;align=center;verticalAlign=middle;resizable=0;points=[];autosize=1;strokeColor=none;fillColor=none;fontFamily=Verdana;fontStyle=1" vertex="1" parent="WIyWlLk6GJQsqaUBKTNV-1">
          <mxGeometry x="1498" y="62" width="60" height="30" as="geometry" />
        </mxCell>
        <mxCell id="zZQvNKMM1_MNGovXTg1E-180" style="edgeStyle=orthogonalEdgeStyle;rounded=0;orthogonalLoop=1;jettySize=auto;html=1;exitX=0.75;exitY=1;exitDx=0;exitDy=0;endArrow=oval;endFill=0;" edge="1" parent="WIyWlLk6GJQsqaUBKTNV-1" source="zZQvNKMM1_MNGovXTg1E-160">
          <mxGeometry relative="1" as="geometry">
            <mxPoint x="1470" y="144.86956521739137" as="targetPoint" />
            <Array as="points">
              <mxPoint x="1387" y="150" />
              <mxPoint x="1450" y="150" />
              <mxPoint x="1450" y="145" />
            </Array>
          </mxGeometry>
        </mxCell>
        <mxCell id="zZQvNKMM1_MNGovXTg1E-187" value="EMAIL" style="text;html=1;align=center;verticalAlign=middle;resizable=0;points=[];autosize=1;strokeColor=none;fillColor=none;fontFamily=Verdana;fontStyle=1" vertex="1" parent="WIyWlLk6GJQsqaUBKTNV-1">
          <mxGeometry x="1506" y="88" width="75" height="30" as="geometry" />
        </mxCell>
        <mxCell id="zZQvNKMM1_MNGovXTg1E-183" style="edgeStyle=orthogonalEdgeStyle;rounded=0;orthogonalLoop=1;jettySize=auto;html=1;exitX=0.75;exitY=0;exitDx=0;exitDy=0;endArrow=oval;endFill=1;" edge="1" parent="WIyWlLk6GJQsqaUBKTNV-1" source="zZQvNKMM1_MNGovXTg1E-160">
          <mxGeometry relative="1" as="geometry">
            <mxPoint x="1530" y="60.08695652173918" as="targetPoint" />
          </mxGeometry>
        </mxCell>
        <mxCell id="zZQvNKMM1_MNGovXTg1E-188" value="CELULAR" style="text;html=1;align=center;verticalAlign=middle;resizable=0;points=[];autosize=1;strokeColor=none;fillColor=none;fontFamily=Verdana;fontStyle=1" vertex="1" parent="WIyWlLk6GJQsqaUBKTNV-1">
          <mxGeometry x="1493" y="110" width="90" height="30" as="geometry" />
        </mxCell>
        <mxCell id="zZQvNKMM1_MNGovXTg1E-189" value="TELEFONE" style="text;html=1;align=center;verticalAlign=middle;resizable=0;points=[];autosize=1;strokeColor=none;fillColor=none;fontFamily=Verdana;fontStyle=1" vertex="1" parent="WIyWlLk6GJQsqaUBKTNV-1">
          <mxGeometry x="1466" y="131" width="90" height="30" as="geometry" />
        </mxCell>
        <mxCell id="zZQvNKMM1_MNGovXTg1E-235" style="edgeStyle=orthogonalEdgeStyle;rounded=0;orthogonalLoop=1;jettySize=auto;html=1;exitX=0.5;exitY=1;exitDx=0;exitDy=0;entryX=0.25;entryY=1;entryDx=0;entryDy=0;endArrow=none;endFill=0;" edge="1" parent="WIyWlLk6GJQsqaUBKTNV-1">
          <mxGeometry relative="1" as="geometry">
            <mxPoint x="1782.5" y="132" as="targetPoint" />
            <mxPoint x="1345" y="131" as="sourcePoint" />
            <Array as="points">
              <mxPoint x="1345" y="241" />
              <mxPoint x="1783" y="241" />
            </Array>
          </mxGeometry>
        </mxCell>
        <mxCell id="zZQvNKMM1_MNGovXTg1E-160" value="&lt;font face=&quot;Verdana&quot; style=&quot;font-size: 14px;&quot;&gt;&lt;b&gt;DISCENTE&lt;/b&gt;&lt;/font&gt;" style="whiteSpace=wrap;html=1;verticalAlign=middle;" vertex="1" parent="WIyWlLk6GJQsqaUBKTNV-1">
          <mxGeometry x="1260" y="60" width="170" height="85" as="geometry" />
        </mxCell>
        <mxCell id="zZQvNKMM1_MNGovXTg1E-193" value="&lt;b&gt;FAZ&lt;/b&gt;" style="html=1;whiteSpace=wrap;shape=isoRectangle;" vertex="1" parent="WIyWlLk6GJQsqaUBKTNV-1">
          <mxGeometry x="1200" y="285" width="113" height="57" as="geometry" />
        </mxCell>
        <mxCell id="zZQvNKMM1_MNGovXTg1E-196" style="edgeStyle=orthogonalEdgeStyle;rounded=0;orthogonalLoop=1;jettySize=auto;html=1;exitX=0.25;exitY=1;exitDx=0;exitDy=0;entryX=0.504;entryY=0.01;entryDx=0;entryDy=0;entryPerimeter=0;endArrow=none;endFill=0;" edge="1" parent="WIyWlLk6GJQsqaUBKTNV-1" source="zZQvNKMM1_MNGovXTg1E-160" target="zZQvNKMM1_MNGovXTg1E-193">
          <mxGeometry relative="1" as="geometry">
            <Array as="points">
              <mxPoint x="1290" y="145" />
              <mxPoint x="1290" y="222" />
              <mxPoint x="1257" y="222" />
            </Array>
          </mxGeometry>
        </mxCell>
        <mxCell id="zZQvNKMM1_MNGovXTg1E-207" style="edgeStyle=orthogonalEdgeStyle;rounded=0;orthogonalLoop=1;jettySize=auto;html=1;exitX=0;exitY=0.5;exitDx=0;exitDy=0;endArrow=none;endFill=0;entryX=0.497;entryY=1.001;entryDx=0;entryDy=0;entryPerimeter=0;" edge="1" parent="WIyWlLk6GJQsqaUBKTNV-1" source="zZQvNKMM1_MNGovXTg1E-206" target="zZQvNKMM1_MNGovXTg1E-193">
          <mxGeometry relative="1" as="geometry">
            <mxPoint x="1305" y="300" as="targetPoint" />
            <Array as="points">
              <mxPoint x="1273" y="420" />
              <mxPoint x="1245" y="420" />
              <mxPoint x="1245" y="357" />
            </Array>
          </mxGeometry>
        </mxCell>
        <mxCell id="zZQvNKMM1_MNGovXTg1E-237" value="&lt;font style=&quot;font-size: 10px;&quot; face=&quot;Verdana&quot;&gt;&lt;b style=&quot;&quot;&gt;MATRICULADO&lt;/b&gt;&lt;/font&gt;" style="html=1;whiteSpace=wrap;shape=isoRectangle;" vertex="1" parent="WIyWlLk6GJQsqaUBKTNV-1">
          <mxGeometry x="1496" y="213" width="113" height="57" as="geometry" />
        </mxCell>
        <mxCell id="zZQvNKMM1_MNGovXTg1E-257" style="edgeStyle=orthogonalEdgeStyle;rounded=0;orthogonalLoop=1;jettySize=auto;html=1;exitX=0;exitY=0.25;exitDx=0;exitDy=0;endArrow=none;endFill=0;" edge="1" parent="WIyWlLk6GJQsqaUBKTNV-1" source="zZQvNKMM1_MNGovXTg1E-252" target="zZQvNKMM1_MNGovXTg1E-237">
          <mxGeometry relative="1" as="geometry" />
        </mxCell>
        <mxCell id="zZQvNKMM1_MNGovXTg1E-275" style="edgeStyle=orthogonalEdgeStyle;rounded=0;orthogonalLoop=1;jettySize=auto;html=1;exitX=0.75;exitY=0;exitDx=0;exitDy=0;endArrow=oval;endFill=1;" edge="1" parent="WIyWlLk6GJQsqaUBKTNV-1" source="zZQvNKMM1_MNGovXTg1E-252">
          <mxGeometry relative="1" as="geometry">
            <mxPoint x="1890" y="314.8571428571428" as="targetPoint" />
          </mxGeometry>
        </mxCell>
        <mxCell id="zZQvNKMM1_MNGovXTg1E-276" style="edgeStyle=orthogonalEdgeStyle;rounded=0;orthogonalLoop=1;jettySize=auto;html=1;exitX=1;exitY=0.25;exitDx=0;exitDy=0;endArrow=oval;endFill=0;" edge="1" parent="WIyWlLk6GJQsqaUBKTNV-1" source="zZQvNKMM1_MNGovXTg1E-252">
          <mxGeometry relative="1" as="geometry">
            <mxPoint x="1905" y="336.2857142857142" as="targetPoint" />
          </mxGeometry>
        </mxCell>
        <mxCell id="zZQvNKMM1_MNGovXTg1E-277" style="edgeStyle=orthogonalEdgeStyle;rounded=0;orthogonalLoop=1;jettySize=auto;html=1;exitX=1;exitY=0.5;exitDx=0;exitDy=0;endArrow=oval;endFill=0;" edge="1" parent="WIyWlLk6GJQsqaUBKTNV-1" source="zZQvNKMM1_MNGovXTg1E-252">
          <mxGeometry relative="1" as="geometry">
            <mxPoint x="1920" y="357.71428571428567" as="targetPoint" />
          </mxGeometry>
        </mxCell>
        <mxCell id="zZQvNKMM1_MNGovXTg1E-278" style="edgeStyle=orthogonalEdgeStyle;rounded=0;orthogonalLoop=1;jettySize=auto;html=1;exitX=1;exitY=0.75;exitDx=0;exitDy=0;endArrow=oval;endFill=0;" edge="1" parent="WIyWlLk6GJQsqaUBKTNV-1" source="zZQvNKMM1_MNGovXTg1E-252">
          <mxGeometry relative="1" as="geometry">
            <mxPoint x="1920" y="390" as="targetPoint" />
          </mxGeometry>
        </mxCell>
        <mxCell id="zZQvNKMM1_MNGovXTg1E-279" style="edgeStyle=orthogonalEdgeStyle;rounded=0;orthogonalLoop=1;jettySize=auto;html=1;exitX=0.75;exitY=1;exitDx=0;exitDy=0;endArrow=oval;endFill=0;" edge="1" parent="WIyWlLk6GJQsqaUBKTNV-1" source="zZQvNKMM1_MNGovXTg1E-252">
          <mxGeometry relative="1" as="geometry">
            <mxPoint x="1845" y="420" as="targetPoint" />
          </mxGeometry>
        </mxCell>
        <mxCell id="zZQvNKMM1_MNGovXTg1E-252" value="&lt;font face=&quot;Verdana&quot; style=&quot;font-size: 14px;&quot;&gt;&lt;b&gt;DISCIPLINA&lt;/b&gt;&lt;/font&gt; " style="whiteSpace=wrap;html=1;verticalAlign=middle;" vertex="1" parent="WIyWlLk6GJQsqaUBKTNV-1">
          <mxGeometry x="1680" y="315" width="170" height="85" as="geometry" />
        </mxCell>
        <mxCell id="zZQvNKMM1_MNGovXTg1E-280" value="idNOMEDISCIPLINA" style="text;html=1;align=center;verticalAlign=middle;resizable=0;points=[];autosize=1;strokeColor=none;fillColor=none;fontFamily=Verdana;fontStyle=1" vertex="1" parent="WIyWlLk6GJQsqaUBKTNV-1">
          <mxGeometry x="1889" y="299.5" width="150" height="30" as="geometry" />
        </mxCell>
        <mxCell id="zZQvNKMM1_MNGovXTg1E-281" value="TURMA" style="text;html=1;align=center;verticalAlign=middle;resizable=0;points=[];autosize=1;strokeColor=none;fillColor=none;fontFamily=Verdana;fontStyle=1" vertex="1" parent="WIyWlLk6GJQsqaUBKTNV-1">
          <mxGeometry x="1912" y="374.5" width="75" height="30" as="geometry" />
        </mxCell>
        <mxCell id="zZQvNKMM1_MNGovXTg1E-282" value="CODIGO" style="text;html=1;align=center;verticalAlign=middle;resizable=0;points=[];autosize=1;strokeColor=none;fillColor=none;fontFamily=Verdana;fontStyle=1" vertex="1" parent="WIyWlLk6GJQsqaUBKTNV-1">
          <mxGeometry x="1901" y="321.5" width="75" height="30" as="geometry" />
        </mxCell>
        <mxCell id="zZQvNKMM1_MNGovXTg1E-283" value="NOMEPROFESSSOR" style="text;html=1;align=center;verticalAlign=middle;resizable=0;points=[];autosize=1;strokeColor=none;fillColor=none;fontFamily=Verdana;fontStyle=1" vertex="1" parent="WIyWlLk6GJQsqaUBKTNV-1">
          <mxGeometry x="1915" y="342.5" width="150" height="30" as="geometry" />
        </mxCell>
        <mxCell id="zZQvNKMM1_MNGovXTg1E-284" value="PERIODOCURSADO" style="text;html=1;align=center;verticalAlign=middle;resizable=0;points=[];autosize=1;strokeColor=none;fillColor=none;fontFamily=Verdana;fontStyle=1" vertex="1" parent="WIyWlLk6GJQsqaUBKTNV-1">
          <mxGeometry x="1841" y="405" width="150" height="30" as="geometry" />
        </mxCell>
        <mxCell id="zZQvNKMM1_MNGovXTg1E-208" style="edgeStyle=orthogonalEdgeStyle;rounded=0;orthogonalLoop=1;jettySize=auto;html=1;exitX=1;exitY=0.25;exitDx=0;exitDy=0;endArrow=oval;endFill=0;" edge="1" parent="WIyWlLk6GJQsqaUBKTNV-1" source="zZQvNKMM1_MNGovXTg1E-218">
          <mxGeometry relative="1" as="geometry">
            <mxPoint x="1950" y="85" as="targetPoint" />
          </mxGeometry>
        </mxCell>
        <mxCell id="zZQvNKMM1_MNGovXTg1E-209" style="edgeStyle=orthogonalEdgeStyle;rounded=0;orthogonalLoop=1;jettySize=auto;html=1;exitX=1;exitY=0.5;exitDx=0;exitDy=0;endArrow=oval;endFill=0;" edge="1" parent="WIyWlLk6GJQsqaUBKTNV-1" source="zZQvNKMM1_MNGovXTg1E-218">
          <mxGeometry relative="1" as="geometry">
            <mxPoint x="1965" y="104" as="targetPoint" />
          </mxGeometry>
        </mxCell>
        <mxCell id="zZQvNKMM1_MNGovXTg1E-210" value="&amp;nbsp; &amp;nbsp;idNOMECURSO" style="text;html=1;align=center;verticalAlign=middle;resizable=0;points=[];autosize=1;strokeColor=none;fillColor=none;fontSize=12;fontFamily=Verdana;fontStyle=1" vertex="1" parent="WIyWlLk6GJQsqaUBKTNV-1">
          <mxGeometry x="1931" y="46" width="135" height="30" as="geometry" />
        </mxCell>
        <mxCell id="zZQvNKMM1_MNGovXTg1E-211" style="edgeStyle=orthogonalEdgeStyle;rounded=0;orthogonalLoop=1;jettySize=auto;html=1;exitX=1;exitY=0.75;exitDx=0;exitDy=0;endArrow=oval;endFill=0;" edge="1" parent="WIyWlLk6GJQsqaUBKTNV-1" source="zZQvNKMM1_MNGovXTg1E-218">
          <mxGeometry relative="1" as="geometry">
            <mxPoint x="1980" y="124.56521739130437" as="targetPoint" />
          </mxGeometry>
        </mxCell>
        <mxCell id="zZQvNKMM1_MNGovXTg1E-212" value="INSTITUTOeFACULDADE" style="text;html=1;align=center;verticalAlign=middle;resizable=0;points=[];autosize=1;strokeColor=none;fillColor=none;fontFamily=Verdana;fontStyle=1" vertex="1" parent="WIyWlLk6GJQsqaUBKTNV-1">
          <mxGeometry x="1949" y="70" width="180" height="30" as="geometry" />
        </mxCell>
        <mxCell id="zZQvNKMM1_MNGovXTg1E-214" value="TURNO" style="text;html=1;align=center;verticalAlign=middle;resizable=0;points=[];autosize=1;strokeColor=none;fillColor=none;fontFamily=Verdana;fontStyle=1" vertex="1" parent="WIyWlLk6GJQsqaUBKTNV-1">
          <mxGeometry x="2106.5" y="133" width="75" height="30" as="geometry" />
        </mxCell>
        <mxCell id="zZQvNKMM1_MNGovXTg1E-216" value="NUMOPCAO" style="text;html=1;align=center;verticalAlign=middle;resizable=0;points=[];autosize=1;strokeColor=none;fillColor=none;fontFamily=Verdana;fontStyle=1" vertex="1" parent="WIyWlLk6GJQsqaUBKTNV-1">
          <mxGeometry x="1957" y="89.5" width="105" height="30" as="geometry" />
        </mxCell>
        <mxCell id="zZQvNKMM1_MNGovXTg1E-217" value="DEPARTAMENTO" style="text;html=1;align=center;verticalAlign=middle;resizable=0;points=[];autosize=1;strokeColor=none;fillColor=none;fontFamily=Verdana;fontStyle=1" vertex="1" parent="WIyWlLk6GJQsqaUBKTNV-1">
          <mxGeometry x="1973.5" y="110" width="135" height="30" as="geometry" />
        </mxCell>
        <mxCell id="zZQvNKMM1_MNGovXTg1E-219" style="edgeStyle=orthogonalEdgeStyle;rounded=0;orthogonalLoop=1;jettySize=auto;html=1;exitX=0.5;exitY=0;exitDx=0;exitDy=0;endArrow=oval;endFill=1;" edge="1" parent="WIyWlLk6GJQsqaUBKTNV-1" source="zZQvNKMM1_MNGovXTg1E-218">
          <mxGeometry relative="1" as="geometry">
            <mxPoint x="1950" y="61" as="targetPoint" />
          </mxGeometry>
        </mxCell>
        <mxCell id="zZQvNKMM1_MNGovXTg1E-220" style="edgeStyle=orthogonalEdgeStyle;rounded=0;orthogonalLoop=1;jettySize=auto;html=1;exitX=0.75;exitY=1;exitDx=0;exitDy=0;endArrow=oval;endFill=0;" edge="1" parent="WIyWlLk6GJQsqaUBKTNV-1" source="zZQvNKMM1_MNGovXTg1E-218">
          <mxGeometry relative="1" as="geometry">
            <mxPoint x="2115" y="147" as="targetPoint" />
            <Array as="points">
              <mxPoint x="1868" y="160" />
              <mxPoint x="2028" y="160" />
              <mxPoint x="2028" y="147" />
              <mxPoint x="2115" y="147" />
            </Array>
          </mxGeometry>
        </mxCell>
        <mxCell id="zZQvNKMM1_MNGovXTg1E-225" style="edgeStyle=orthogonalEdgeStyle;rounded=0;orthogonalLoop=1;jettySize=auto;html=1;exitX=0.5;exitY=1;exitDx=0;exitDy=0;endArrow=oval;endFill=0;" edge="1" parent="WIyWlLk6GJQsqaUBKTNV-1" source="zZQvNKMM1_MNGovXTg1E-218">
          <mxGeometry relative="1" as="geometry">
            <mxPoint x="1920" y="190" as="targetPoint" />
          </mxGeometry>
        </mxCell>
        <mxCell id="zZQvNKMM1_MNGovXTg1E-218" value="&lt;font face=&quot;Verdana&quot;&gt;&lt;span style=&quot;font-size: 14px;&quot;&gt;&lt;b&gt;CURSO&lt;/b&gt;&lt;/span&gt;&lt;/font&gt;" style="whiteSpace=wrap;html=1;verticalAlign=middle;" vertex="1" parent="WIyWlLk6GJQsqaUBKTNV-1">
          <mxGeometry x="1740" y="61" width="170" height="85" as="geometry" />
        </mxCell>
        <mxCell id="zZQvNKMM1_MNGovXTg1E-221" value="" style="strokeWidth=1;html=1;shape=mxgraph.flowchart.annotation_2;align=left;labelPosition=right;pointerEvents=1;" vertex="1" parent="WIyWlLk6GJQsqaUBKTNV-1">
          <mxGeometry x="2169.5" y="134" width="50" height="28" as="geometry" />
        </mxCell>
        <mxCell id="zZQvNKMM1_MNGovXTg1E-223" value="DIURNO" style="text;html=1;align=center;verticalAlign=middle;resizable=0;points=[];autosize=1;strokeColor=none;fillColor=none;fontFamily=Verdana;fontStyle=1" vertex="1" parent="WIyWlLk6GJQsqaUBKTNV-1">
          <mxGeometry x="2211" y="120" width="75" height="30" as="geometry" />
        </mxCell>
        <mxCell id="zZQvNKMM1_MNGovXTg1E-224" value="NOTURNO" style="text;html=1;align=center;verticalAlign=middle;resizable=0;points=[];autosize=1;strokeColor=none;fillColor=none;fontFamily=Verdana;fontStyle=1" vertex="1" parent="WIyWlLk6GJQsqaUBKTNV-1">
          <mxGeometry x="2211" y="145" width="90" height="30" as="geometry" />
        </mxCell>
        <mxCell id="zZQvNKMM1_MNGovXTg1E-226" value="NIVEL" style="text;html=1;align=center;verticalAlign=middle;resizable=0;points=[];autosize=1;strokeColor=none;fillColor=none;fontFamily=Verdana;fontStyle=1" vertex="1" parent="WIyWlLk6GJQsqaUBKTNV-1">
          <mxGeometry x="1883.5" y="185" width="75" height="30" as="geometry" />
        </mxCell>
        <mxCell id="zZQvNKMM1_MNGovXTg1E-227" value="" style="strokeWidth=1;html=1;shape=mxgraph.flowchart.annotation_2;align=left;labelPosition=right;pointerEvents=1;" vertex="1" parent="WIyWlLk6GJQsqaUBKTNV-1">
          <mxGeometry x="1946" y="186" width="50" height="28" as="geometry" />
        </mxCell>
        <mxCell id="zZQvNKMM1_MNGovXTg1E-228" value="GRADUACAO" style="text;html=1;align=center;verticalAlign=middle;resizable=0;points=[];autosize=1;strokeColor=none;fillColor=none;fontFamily=Verdana;fontStyle=1" vertex="1" parent="WIyWlLk6GJQsqaUBKTNV-1">
          <mxGeometry x="1990" y="172" width="105" height="30" as="geometry" />
        </mxCell>
        <mxCell id="zZQvNKMM1_MNGovXTg1E-229" value="POSGRADUACAO" style="text;html=1;align=center;verticalAlign=middle;resizable=0;points=[];autosize=1;strokeColor=none;fillColor=none;fontFamily=Verdana;fontStyle=1" vertex="1" parent="WIyWlLk6GJQsqaUBKTNV-1">
          <mxGeometry x="1988" y="200" width="135" height="30" as="geometry" />
        </mxCell>
        <mxCell id="zZQvNKMM1_MNGovXTg1E-302" style="edgeStyle=orthogonalEdgeStyle;rounded=0;orthogonalLoop=1;jettySize=auto;html=1;exitX=0;exitY=0.5;exitDx=0;exitDy=0;entryX=0.25;entryY=1;entryDx=0;entryDy=0;endArrow=none;endFill=0;" edge="1" parent="WIyWlLk6GJQsqaUBKTNV-1" source="zZQvNKMM1_MNGovXTg1E-293" target="zZQvNKMM1_MNGovXTg1E-206">
          <mxGeometry relative="1" as="geometry" />
        </mxCell>
        <mxCell id="zZQvNKMM1_MNGovXTg1E-293" value="&lt;font face=&quot;Verdana&quot; style=&quot;font-size: 14px;&quot;&gt;&lt;b&gt;COORDENAÇÃO&lt;/b&gt;&lt;/font&gt;" style="whiteSpace=wrap;html=1;verticalAlign=middle;" vertex="1" parent="WIyWlLk6GJQsqaUBKTNV-1">
          <mxGeometry x="2049.5" y="600" width="170" height="85" as="geometry" />
        </mxCell>
        <mxCell id="zZQvNKMM1_MNGovXTg1E-296" value="&amp;nbsp;idASSINATURAS" style="text;html=1;align=center;verticalAlign=middle;resizable=0;points=[];autosize=1;strokeColor=none;fillColor=none;fontFamily=Verdana;fontStyle=1" vertex="1" parent="WIyWlLk6GJQsqaUBKTNV-1">
          <mxGeometry x="1656" y="690" width="135" height="30" as="geometry" />
        </mxCell>
        <mxCell id="zZQvNKMM1_MNGovXTg1E-303" value="&lt;b&gt;PARA&lt;/b&gt;" style="html=1;whiteSpace=wrap;shape=isoRectangle;" vertex="1" parent="WIyWlLk6GJQsqaUBKTNV-1">
          <mxGeometry x="1656" y="765" width="113" height="57" as="geometry" />
        </mxCell>
        <mxCell id="zZQvNKMM1_MNGovXTg1E-307" value="(1,1)" style="text;html=1;align=center;verticalAlign=middle;resizable=0;points=[];autosize=1;strokeColor=none;fillColor=none;fontSize=11;fontFamily=Verdana;fontStyle=1" vertex="1" parent="WIyWlLk6GJQsqaUBKTNV-1">
          <mxGeometry x="1336" y="143" width="60" height="30" as="geometry" />
        </mxCell>
        <mxCell id="zZQvNKMM1_MNGovXTg1E-308" value="(1,1)" style="text;html=1;align=center;verticalAlign=middle;resizable=0;points=[];autosize=1;strokeColor=none;fillColor=none;fontSize=11;fontFamily=Verdana;fontStyle=1" vertex="1" parent="WIyWlLk6GJQsqaUBKTNV-1">
          <mxGeometry x="1731" y="142" width="60" height="30" as="geometry" />
        </mxCell>
        <mxCell id="zZQvNKMM1_MNGovXTg1E-309" value="(1,N)" style="text;html=1;align=center;verticalAlign=middle;resizable=0;points=[];autosize=1;strokeColor=none;fillColor=none;fontSize=11;fontFamily=Verdana;fontStyle=1" vertex="1" parent="WIyWlLk6GJQsqaUBKTNV-1">
          <mxGeometry x="1631" y="309.5" width="60" height="30" as="geometry" />
        </mxCell>
        <mxCell id="zZQvNKMM1_MNGovXTg1E-310" value="&lt;span style=&quot;color: rgb(0, 0, 0); font-family: Verdana; font-size: 11px; font-style: normal; font-variant-ligatures: normal; font-variant-caps: normal; font-weight: 700; letter-spacing: normal; orphans: 2; text-align: center; text-indent: 0px; text-transform: none; widows: 2; word-spacing: 0px; -webkit-text-stroke-width: 0px; white-space: nowrap; background-color: rgb(251, 251, 251); text-decoration-thickness: initial; text-decoration-style: initial; text-decoration-color: initial; display: inline !important; float: none;&quot;&gt;(0,1)&lt;/span&gt;" style="text;whiteSpace=wrap;html=1;" vertex="1" parent="WIyWlLk6GJQsqaUBKTNV-1">
          <mxGeometry x="1255" y="143" width="75" height="45" as="geometry" />
        </mxCell>
        <mxCell id="zZQvNKMM1_MNGovXTg1E-311" value="&lt;span style=&quot;color: rgb(0, 0, 0); font-family: Verdana; font-size: 11px; font-style: normal; font-variant-ligatures: normal; font-variant-caps: normal; font-weight: 700; letter-spacing: normal; orphans: 2; text-align: center; text-indent: 0px; text-transform: none; widows: 2; word-spacing: 0px; -webkit-text-stroke-width: 0px; white-space: nowrap; background-color: rgb(251, 251, 251); text-decoration-thickness: initial; text-decoration-style: initial; text-decoration-color: initial; display: inline !important; float: none;&quot;&gt;(1,1)&lt;/span&gt;" style="text;whiteSpace=wrap;html=1;" vertex="1" parent="WIyWlLk6GJQsqaUBKTNV-1">
          <mxGeometry x="1238" y="420" width="75" height="45" as="geometry" />
        </mxCell>
        <mxCell id="zZQvNKMM1_MNGovXTg1E-316" value="&lt;span style=&quot;color: rgb(0, 0, 0); font-family: Verdana; font-size: 11px; font-style: normal; font-variant-ligatures: normal; font-variant-caps: normal; font-weight: 700; letter-spacing: normal; orphans: 2; text-align: center; text-indent: 0px; text-transform: none; widows: 2; word-spacing: 0px; -webkit-text-stroke-width: 0px; white-space: nowrap; background-color: rgb(251, 251, 251); text-decoration-thickness: initial; text-decoration-style: initial; text-decoration-color: initial; display: inline !important; float: none;&quot;&gt;(1,1)&lt;/span&gt;" style="text;whiteSpace=wrap;html=1;" vertex="1" parent="WIyWlLk6GJQsqaUBKTNV-1">
          <mxGeometry x="1563" y="720" width="75" height="45" as="geometry" />
        </mxCell>
        <mxCell id="zZQvNKMM1_MNGovXTg1E-197" style="edgeStyle=orthogonalEdgeStyle;rounded=0;orthogonalLoop=1;jettySize=auto;html=1;exitX=1;exitY=0.25;exitDx=0;exitDy=0;endArrow=oval;endFill=1;" edge="1" parent="WIyWlLk6GJQsqaUBKTNV-1" source="zZQvNKMM1_MNGovXTg1E-206">
          <mxGeometry relative="1" as="geometry">
            <mxPoint x="1497" y="429.52" as="targetPoint" />
            <Array as="points">
              <mxPoint x="1470" y="421.52" />
              <mxPoint x="1470" y="430.52" />
              <mxPoint x="1497" y="430.52" />
            </Array>
          </mxGeometry>
        </mxCell>
        <mxCell id="zZQvNKMM1_MNGovXTg1E-198" style="edgeStyle=orthogonalEdgeStyle;rounded=0;orthogonalLoop=1;jettySize=auto;html=1;exitX=1;exitY=0.5;exitDx=0;exitDy=0;endArrow=oval;endFill=0;" edge="1" parent="WIyWlLk6GJQsqaUBKTNV-1" source="zZQvNKMM1_MNGovXTg1E-206">
          <mxGeometry relative="1" as="geometry">
            <mxPoint x="1482" y="459.52" as="targetPoint" />
            <Array as="points">
              <mxPoint x="1452" y="442.52" />
              <mxPoint x="1452" y="475.52" />
              <mxPoint x="1467" y="475.52" />
              <mxPoint x="1467" y="459.52" />
            </Array>
          </mxGeometry>
        </mxCell>
        <mxCell id="zZQvNKMM1_MNGovXTg1E-318" style="edgeStyle=orthogonalEdgeStyle;rounded=0;orthogonalLoop=1;jettySize=auto;html=1;exitX=1.002;exitY=0.495;exitDx=0;exitDy=0;exitPerimeter=0;shadow=0;flowAnimation=0;strokeColor=default;endArrow=none;endFill=0;" edge="1" parent="WIyWlLk6GJQsqaUBKTNV-1" source="zZQvNKMM1_MNGovXTg1E-200">
          <mxGeometry relative="1" as="geometry">
            <mxPoint x="1635" y="480" as="targetPoint" />
            <Array as="points">
              <mxPoint x="1620" y="429" />
            </Array>
          </mxGeometry>
        </mxCell>
        <mxCell id="zZQvNKMM1_MNGovXTg1E-200" value="idSITUACAO" style="text;html=1;align=center;verticalAlign=middle;resizable=0;points=[];autosize=1;strokeColor=none;fillColor=none;fontFamily=Verdana;fontStyle=1" vertex="1" parent="WIyWlLk6GJQsqaUBKTNV-1">
          <mxGeometry x="1490" y="414.52" width="105" height="30" as="geometry" />
        </mxCell>
        <mxCell id="zZQvNKMM1_MNGovXTg1E-202" value="MOTIVOS" style="text;html=1;align=center;verticalAlign=middle;resizable=0;points=[];autosize=1;strokeColor=none;fillColor=none;fontFamily=Verdana;fontStyle=1" vertex="1" parent="WIyWlLk6GJQsqaUBKTNV-1">
          <mxGeometry x="1476" y="444.52" width="90" height="30" as="geometry" />
        </mxCell>
        <mxCell id="zZQvNKMM1_MNGovXTg1E-206" value="&lt;font face=&quot;Verdana&quot; style=&quot;font-size: 14px;&quot;&gt;&lt;b&gt;SOLICITAÇÃO&lt;/b&gt;&lt;/font&gt;" style="whiteSpace=wrap;html=1;verticalAlign=middle;" vertex="1" parent="WIyWlLk6GJQsqaUBKTNV-1">
          <mxGeometry x="1273" y="400" width="170" height="85" as="geometry" />
        </mxCell>
        <mxCell id="zZQvNKMM1_MNGovXTg1E-81" style="edgeStyle=orthogonalEdgeStyle;rounded=0;orthogonalLoop=1;jettySize=auto;html=1;endArrow=none;endFill=0;entryX=0.012;entryY=0.145;entryDx=0;entryDy=0;entryPerimeter=0;" edge="1" parent="WIyWlLk6GJQsqaUBKTNV-1" source="zZQvNKMM1_MNGovXTg1E-147">
          <mxGeometry relative="1" as="geometry">
            <mxPoint x="2453.4916155419223" y="476.8" as="targetPoint" />
            <mxPoint x="2363.711656441718" y="252" as="sourcePoint" />
            <Array as="points">
              <mxPoint x="2406.9836400817994" y="391" />
              <mxPoint x="2454.0184049079753" y="391" />
              <mxPoint x="2454.0184049079753" y="431" />
              <mxPoint x="2482.239263803681" y="431" />
              <mxPoint x="2482.239263803681" y="477" />
            </Array>
          </mxGeometry>
        </mxCell>
        <mxCell id="zZQvNKMM1_MNGovXTg1E-82" value="&amp;nbsp;" style="rounded=1;whiteSpace=wrap;html=1;fontSize=12;glass=0;strokeWidth=1;shadow=0;fontFamily=Courier New;perimeterSpacing=2;" vertex="1" parent="WIyWlLk6GJQsqaUBKTNV-1">
          <mxGeometry x="2450.2556237218814" y="172" width="112.88343558282209" height="40" as="geometry" />
        </mxCell>
        <mxCell id="zZQvNKMM1_MNGovXTg1E-83" value="" style="endArrow=none;html=1;rounded=0;fontFamily=Courier New;shadow=0;" edge="1" parent="WIyWlLk6GJQsqaUBKTNV-1">
          <mxGeometry width="50" height="50" relative="1" as="geometry">
            <mxPoint x="2506.6973415132925" y="232" as="sourcePoint" />
            <mxPoint x="2506.3775051124744" y="212" as="targetPoint" />
          </mxGeometry>
        </mxCell>
        <mxCell id="zZQvNKMM1_MNGovXTg1E-84" value="MATRICULA" style="ellipse;whiteSpace=wrap;shadow=0;gradientColor=none;strokeColor=default;fontSize=9;fontFamily=Courier New;labelBackgroundColor=none;labelBorderColor=none;textShadow=0;fontStyle=4;horizontal=1;html=1;" vertex="1" parent="WIyWlLk6GJQsqaUBKTNV-1">
          <mxGeometry x="2466.717791411043" y="232" width="79.95910020449898" height="30" as="geometry" />
        </mxCell>
        <mxCell id="zZQvNKMM1_MNGovXTg1E-85" value="NOME" style="ellipse;whiteSpace=wrap;html=1;shadow=0;gradientColor=none;strokeColor=default;fontSize=9;fontFamily=Courier New;fontStyle=0;" vertex="1" parent="WIyWlLk6GJQsqaUBKTNV-1">
          <mxGeometry x="2466.717791411043" y="262" width="79.95910020449898" height="30" as="geometry" />
        </mxCell>
        <mxCell id="zZQvNKMM1_MNGovXTg1E-86" value="CELULAR" style="ellipse;whiteSpace=wrap;html=1;shadow=0;gradientColor=none;strokeColor=default;fontSize=10;fontFamily=Courier New;" vertex="1" parent="WIyWlLk6GJQsqaUBKTNV-1">
          <mxGeometry x="2466.717791411043" y="322" width="79.95910020449898" height="30" as="geometry" />
        </mxCell>
        <mxCell id="zZQvNKMM1_MNGovXTg1E-87" value="E-MAIL" style="ellipse;whiteSpace=wrap;html=1;shadow=0;gradientColor=none;strokeColor=default;fontSize=10;fontFamily=Courier New;" vertex="1" parent="WIyWlLk6GJQsqaUBKTNV-1">
          <mxGeometry x="2466.717791411043" y="292" width="79.95910020449898" height="30" as="geometry" />
        </mxCell>
        <mxCell id="zZQvNKMM1_MNGovXTg1E-88" value="TELEFONE" style="ellipse;whiteSpace=wrap;html=1;shadow=0;gradientColor=none;strokeColor=default;fontSize=10;fontFamily=Courier New;" vertex="1" parent="WIyWlLk6GJQsqaUBKTNV-1">
          <mxGeometry x="2466.717791411043" y="352" width="79.95910020449898" height="30" as="geometry" />
        </mxCell>
        <mxCell id="zZQvNKMM1_MNGovXTg1E-89" value="CURSO" style="rounded=1;whiteSpace=wrap;html=1;fontSize=12;glass=0;strokeWidth=1;shadow=0;fontFamily=Courier New;" vertex="1" parent="WIyWlLk6GJQsqaUBKTNV-1">
          <mxGeometry x="2788.905930470348" y="172" width="112.88343558282209" height="40" as="geometry" />
        </mxCell>
        <mxCell id="zZQvNKMM1_MNGovXTg1E-90" value="" style="endArrow=none;html=1;rounded=0;fontFamily=Courier New;shadow=0;" edge="1" parent="WIyWlLk6GJQsqaUBKTNV-1" target="zZQvNKMM1_MNGovXTg1E-89">
          <mxGeometry width="50" height="50" relative="1" as="geometry">
            <mxPoint x="2845.347648261759" y="232" as="sourcePoint" />
            <mxPoint x="2845.027811860941" y="212" as="targetPoint" />
          </mxGeometry>
        </mxCell>
        <mxCell id="zZQvNKMM1_MNGovXTg1E-91" value="NOME_DO_CURSO" style="ellipse;whiteSpace=wrap;shadow=0;gradientColor=none;strokeColor=default;fontSize=9;fontFamily=Courier New;labelBackgroundColor=none;labelBorderColor=none;textShadow=0;fontStyle=4;horizontal=1;html=1;" vertex="1" parent="WIyWlLk6GJQsqaUBKTNV-1">
          <mxGeometry x="2805.3680981595094" y="232" width="79.95910020449898" height="30" as="geometry" />
        </mxCell>
        <mxCell id="zZQvNKMM1_MNGovXTg1E-92" value="INSTITUTO_OU_ FACULDADE" style="ellipse;whiteSpace=wrap;html=1;shadow=0;gradientColor=none;strokeColor=default;fontSize=8;fontFamily=Courier New;fontStyle=0;" vertex="1" parent="WIyWlLk6GJQsqaUBKTNV-1">
          <mxGeometry x="2805.3680981595094" y="262" width="79.95910020449898" height="30" as="geometry" />
        </mxCell>
        <mxCell id="zZQvNKMM1_MNGovXTg1E-93" value="N°_DE_OPÇÃO" style="ellipse;whiteSpace=wrap;html=1;shadow=0;gradientColor=none;strokeColor=default;fontSize=9;fontFamily=Courier New;" vertex="1" parent="WIyWlLk6GJQsqaUBKTNV-1">
          <mxGeometry x="2805.3680981595094" y="292" width="79.95910020449898" height="30" as="geometry" />
        </mxCell>
        <mxCell id="zZQvNKMM1_MNGovXTg1E-94" value="" style="endArrow=none;html=1;rounded=0;exitX=1;exitY=0.25;exitDx=0;exitDy=0;shadow=0;" edge="1" parent="WIyWlLk6GJQsqaUBKTNV-1">
          <mxGeometry width="50" height="50" relative="1" as="geometry">
            <mxPoint x="2563.1390593047036" y="191.90000000000003" as="sourcePoint" />
            <mxPoint x="2638.394683026585" y="191.9" as="targetPoint" />
          </mxGeometry>
        </mxCell>
        <mxCell id="zZQvNKMM1_MNGovXTg1E-95" style="edgeStyle=orthogonalEdgeStyle;rounded=0;orthogonalLoop=1;jettySize=auto;html=1;entryX=0.5;entryY=0;entryDx=0;entryDy=0;shadow=0;endArrow=none;endFill=0;" edge="1" parent="WIyWlLk6GJQsqaUBKTNV-1" source="zZQvNKMM1_MNGovXTg1E-96" target="zZQvNKMM1_MNGovXTg1E-98">
          <mxGeometry relative="1" as="geometry" />
        </mxCell>
        <mxCell id="zZQvNKMM1_MNGovXTg1E-96" value="MATRICULADO" style="rhombus;whiteSpace=wrap;html=1;fontSize=8;shadow=0;" vertex="1" parent="WIyWlLk6GJQsqaUBKTNV-1">
          <mxGeometry x="2638.394683026585" y="177" width="75.25562372188139" height="30" as="geometry" />
        </mxCell>
        <mxCell id="zZQvNKMM1_MNGovXTg1E-97" value="" style="endArrow=none;html=1;rounded=0;exitX=1;exitY=0.25;exitDx=0;exitDy=0;shadow=0;" edge="1" parent="WIyWlLk6GJQsqaUBKTNV-1">
          <mxGeometry width="50" height="50" relative="1" as="geometry">
            <mxPoint x="2713.6503067484664" y="191.90000000000003" as="sourcePoint" />
            <mxPoint x="2788.905930470348" y="192.09428571428572" as="targetPoint" />
          </mxGeometry>
        </mxCell>
        <mxCell id="zZQvNKMM1_MNGovXTg1E-98" value="&amp;nbsp;" style="rounded=1;whiteSpace=wrap;html=1;fontSize=12;glass=0;strokeWidth=1;shadow=0;fontFamily=Courier New;" vertex="1" parent="WIyWlLk6GJQsqaUBKTNV-1">
          <mxGeometry x="2619.5807770961146" y="252" width="112.88343558282209" height="40" as="geometry" />
        </mxCell>
        <mxCell id="zZQvNKMM1_MNGovXTg1E-99" value="" style="endArrow=none;html=1;rounded=0;fontFamily=Courier New;shadow=0;" edge="1" parent="WIyWlLk6GJQsqaUBKTNV-1">
          <mxGeometry width="50" height="50" relative="1" as="geometry">
            <mxPoint x="2676.0224948875257" y="312" as="sourcePoint" />
            <mxPoint x="2675.7026584867076" y="292" as="targetPoint" />
          </mxGeometry>
        </mxCell>
        <mxCell id="zZQvNKMM1_MNGovXTg1E-100" value="NOME_DA_DISCIPLINA" style="ellipse;whiteSpace=wrap;shadow=0;gradientColor=none;strokeColor=default;fontSize=7;fontFamily=Courier New;labelBackgroundColor=none;labelBorderColor=none;textShadow=0;fontStyle=4;horizontal=1;html=1;" vertex="1" parent="WIyWlLk6GJQsqaUBKTNV-1">
          <mxGeometry x="2636.042944785276" y="312" width="79.95910020449898" height="30" as="geometry" />
        </mxCell>
        <mxCell id="zZQvNKMM1_MNGovXTg1E-101" value="CÓDIGO" style="ellipse;whiteSpace=wrap;html=1;shadow=0;gradientColor=none;strokeColor=default;fontSize=10;fontFamily=Courier New;fontStyle=0;" vertex="1" parent="WIyWlLk6GJQsqaUBKTNV-1">
          <mxGeometry x="2636.042944785276" y="342" width="79.95910020449898" height="30" as="geometry" />
        </mxCell>
        <mxCell id="zZQvNKMM1_MNGovXTg1E-102" value="TURMA" style="ellipse;whiteSpace=wrap;html=1;shadow=0;gradientColor=none;strokeColor=default;fontSize=9;fontFamily=Courier New;" vertex="1" parent="WIyWlLk6GJQsqaUBKTNV-1">
          <mxGeometry x="2636.042944785276" y="402" width="79.95910020449898" height="30" as="geometry" />
        </mxCell>
        <mxCell id="zZQvNKMM1_MNGovXTg1E-103" value="&lt;font style=&quot;font-size: 6px;&quot;&gt;NOME_DO_PROFESSOR(A)&lt;/font&gt;" style="ellipse;whiteSpace=wrap;html=1;shadow=0;gradientColor=none;strokeColor=default;fontSize=9;fontFamily=Courier New;" vertex="1" parent="WIyWlLk6GJQsqaUBKTNV-1">
          <mxGeometry x="2636.042944785276" y="372" width="79.95910020449898" height="30" as="geometry" />
        </mxCell>
        <mxCell id="zZQvNKMM1_MNGovXTg1E-104" value="PERIODO_CURSADO" style="ellipse;whiteSpace=wrap;html=1;shadow=0;gradientColor=none;strokeColor=default;fontSize=8;fontFamily=Courier New;" vertex="1" parent="WIyWlLk6GJQsqaUBKTNV-1">
          <mxGeometry x="2636.042944785276" y="432" width="79.95910020449898" height="30" as="geometry" />
        </mxCell>
        <mxCell id="zZQvNKMM1_MNGovXTg1E-105" value="1" style="text;html=1;align=center;verticalAlign=middle;whiteSpace=wrap;rounded=0;shadow=0;" vertex="1" parent="WIyWlLk6GJQsqaUBKTNV-1">
          <mxGeometry x="2544.325153374233" y="172" width="56.441717791411044" height="30" as="geometry" />
        </mxCell>
        <mxCell id="zZQvNKMM1_MNGovXTg1E-106" value="1" style="text;html=1;align=center;verticalAlign=middle;whiteSpace=wrap;rounded=0;shadow=0;" vertex="1" parent="WIyWlLk6GJQsqaUBKTNV-1">
          <mxGeometry x="2751.278118609407" y="172" width="56.441717791411044" height="30" as="geometry" />
        </mxCell>
        <mxCell id="zZQvNKMM1_MNGovXTg1E-107" value="DEPARTAMENTO" style="ellipse;whiteSpace=wrap;html=1;shadow=0;gradientColor=none;strokeColor=default;fontSize=9;fontFamily=Courier New;" vertex="1" parent="WIyWlLk6GJQsqaUBKTNV-1">
          <mxGeometry x="2807.719836400818" y="322" width="79.95910020449898" height="30" as="geometry" />
        </mxCell>
        <mxCell id="zZQvNKMM1_MNGovXTg1E-108" style="edgeStyle=orthogonalEdgeStyle;rounded=0;orthogonalLoop=1;jettySize=auto;html=1;exitX=1;exitY=0;exitDx=0;exitDy=0;endArrow=none;endFill=0;shadow=0;fontFamily=Courier New;" edge="1" parent="WIyWlLk6GJQsqaUBKTNV-1" source="zZQvNKMM1_MNGovXTg1E-109">
          <mxGeometry relative="1" as="geometry">
            <mxPoint x="2926.247443762781" y="332" as="targetPoint" />
          </mxGeometry>
        </mxCell>
        <mxCell id="zZQvNKMM1_MNGovXTg1E-109" value="TURNO_DO_CURSO" style="ellipse;whiteSpace=wrap;html=1;shadow=0;gradientColor=none;strokeColor=default;fontSize=9;fontFamily=Courier New;" vertex="1" parent="WIyWlLk6GJQsqaUBKTNV-1">
          <mxGeometry x="2807.719836400818" y="352" width="79.95910020449898" height="30" as="geometry" />
        </mxCell>
        <mxCell id="zZQvNKMM1_MNGovXTg1E-110" value="NÍVEL" style="ellipse;whiteSpace=wrap;html=1;shadow=0;gradientColor=none;strokeColor=default;fontSize=9;fontFamily=Courier New;" vertex="1" parent="WIyWlLk6GJQsqaUBKTNV-1">
          <mxGeometry x="2807.719836400818" y="382" width="79.95910020449898" height="30" as="geometry" />
        </mxCell>
        <mxCell id="zZQvNKMM1_MNGovXTg1E-111" style="edgeStyle=orthogonalEdgeStyle;rounded=0;orthogonalLoop=1;jettySize=auto;html=1;exitX=1;exitY=0.5;exitDx=0;exitDy=0;entryX=0;entryY=0.5;entryDx=0;entryDy=0;endArrow=none;endFill=0;" edge="1" parent="WIyWlLk6GJQsqaUBKTNV-1" source="zZQvNKMM1_MNGovXTg1E-149" target="zZQvNKMM1_MNGovXTg1E-98">
          <mxGeometry relative="1" as="geometry">
            <mxPoint x="2587.5971370143147" y="284" as="targetPoint" />
            <Array as="points">
              <mxPoint x="2602.648261758691" y="417" />
              <mxPoint x="2602.648261758691" y="272" />
            </Array>
          </mxGeometry>
        </mxCell>
        <mxCell id="zZQvNKMM1_MNGovXTg1E-112" style="edgeStyle=orthogonalEdgeStyle;rounded=0;orthogonalLoop=1;jettySize=auto;html=1;exitX=0;exitY=0.5;exitDx=0;exitDy=0;endArrow=none;endFill=0;fontFamily=Courier New;" edge="1" parent="WIyWlLk6GJQsqaUBKTNV-1" source="zZQvNKMM1_MNGovXTg1E-113">
          <mxGeometry relative="1" as="geometry">
            <mxPoint x="2406.9836400817994" y="636" as="targetPoint" />
            <Array as="points">
              <mxPoint x="2422.034764826176" y="477" />
            </Array>
          </mxGeometry>
        </mxCell>
        <mxCell id="zZQvNKMM1_MNGovXTg1E-113" value="SOLICITAÇÃO" style="rounded=1;whiteSpace=wrap;html=1;fontSize=12;glass=0;strokeWidth=1;shadow=0;fontFamily=Courier New;" vertex="1" parent="WIyWlLk6GJQsqaUBKTNV-1">
          <mxGeometry x="2422.034764826176" y="457" width="112.88343558282209" height="40" as="geometry" />
        </mxCell>
        <mxCell id="zZQvNKMM1_MNGovXTg1E-114" value="" style="endArrow=none;html=1;rounded=0;fontFamily=Courier New;shadow=0;" edge="1" parent="WIyWlLk6GJQsqaUBKTNV-1" target="zZQvNKMM1_MNGovXTg1E-113">
          <mxGeometry width="50" height="50" relative="1" as="geometry">
            <mxPoint x="2478.476482617587" y="517" as="sourcePoint" />
            <mxPoint x="2478.156646216769" y="497" as="targetPoint" />
          </mxGeometry>
        </mxCell>
        <mxCell id="zZQvNKMM1_MNGovXTg1E-115" value="SITUAÇÃO" style="ellipse;whiteSpace=wrap;shadow=0;gradientColor=none;strokeColor=default;fontSize=10;fontFamily=Courier New;labelBackgroundColor=none;labelBorderColor=none;textShadow=0;fontStyle=4;horizontal=1;html=1;" vertex="1" parent="WIyWlLk6GJQsqaUBKTNV-1">
          <mxGeometry x="2438.4969325153374" y="517" width="79.95910020449898" height="30" as="geometry" />
        </mxCell>
        <mxCell id="zZQvNKMM1_MNGovXTg1E-116" value="MOTIVOS" style="ellipse;whiteSpace=wrap;html=1;shadow=0;gradientColor=none;strokeColor=default;fontSize=11;fontFamily=Courier New;fontStyle=0;verticalAlign=middle;" vertex="1" parent="WIyWlLk6GJQsqaUBKTNV-1">
          <mxGeometry x="2438.4969325153374" y="547" width="79.95910020449898" height="30" as="geometry" />
        </mxCell>
        <mxCell id="zZQvNKMM1_MNGovXTg1E-117" value="" style="ellipse;whiteSpace=wrap;html=1;align=center;aspect=fixed;fillColor=none;strokeColor=none;resizable=0;perimeter=centerPerimeter;rotatable=0;allowArrows=0;points=[];outlineConnect=1;shadow=0;" vertex="1" parent="WIyWlLk6GJQsqaUBKTNV-1">
          <mxGeometry x="2990.2147239263804" y="422" width="10" height="10" as="geometry" />
        </mxCell>
        <mxCell id="zZQvNKMM1_MNGovXTg1E-118" value="" style="strokeWidth=1;html=1;shape=mxgraph.flowchart.annotation_2;align=left;labelPosition=right;pointerEvents=1;fontSize=9;shadow=0;fontFamily=Courier New;" vertex="1" parent="WIyWlLk6GJQsqaUBKTNV-1">
          <mxGeometry x="2894.734151329243" y="402" width="19.754601226993863" height="30" as="geometry" />
        </mxCell>
        <mxCell id="zZQvNKMM1_MNGovXTg1E-119" value="GRADUAÇÃO" style="ellipse;whiteSpace=wrap;html=1;shadow=0;gradientColor=none;strokeColor=default;fontSize=9;fontFamily=Courier New;" vertex="1" parent="WIyWlLk6GJQsqaUBKTNV-1">
          <mxGeometry x="2910.2556237218814" y="392" width="79.95910020449898" height="20" as="geometry" />
        </mxCell>
        <mxCell id="zZQvNKMM1_MNGovXTg1E-120" value="PÓS_GRADUAÇÃO" style="ellipse;whiteSpace=wrap;html=1;shadow=0;gradientColor=none;strokeColor=default;fontSize=9;fontFamily=Courier New;" vertex="1" parent="WIyWlLk6GJQsqaUBKTNV-1">
          <mxGeometry x="2910.2556237218814" y="422" width="79.95910020449898" height="20" as="geometry" />
        </mxCell>
        <mxCell id="zZQvNKMM1_MNGovXTg1E-121" style="edgeStyle=orthogonalEdgeStyle;rounded=0;orthogonalLoop=1;jettySize=auto;html=1;exitX=0.5;exitY=1;exitDx=0;exitDy=0;endArrow=none;endFill=0;shadow=0;fontFamily=Courier New;" edge="1" parent="WIyWlLk6GJQsqaUBKTNV-1">
          <mxGeometry relative="1" as="geometry">
            <mxPoint x="2843.3063394683027" y="412" as="sourcePoint" />
            <mxPoint x="2898.0265848670756" y="417" as="targetPoint" />
            <Array as="points">
              <mxPoint x="2843.4662576687115" y="417" />
            </Array>
          </mxGeometry>
        </mxCell>
        <mxCell id="zZQvNKMM1_MNGovXTg1E-122" value="" style="ellipse;whiteSpace=wrap;html=1;align=center;aspect=fixed;fillColor=none;strokeColor=none;resizable=0;perimeter=centerPerimeter;rotatable=0;allowArrows=0;points=[];outlineConnect=1;shadow=0;" vertex="1" parent="WIyWlLk6GJQsqaUBKTNV-1">
          <mxGeometry x="3055.593047034765" y="352" width="10" height="10" as="geometry" />
        </mxCell>
        <mxCell id="zZQvNKMM1_MNGovXTg1E-123" value="" style="strokeWidth=1;html=1;shape=mxgraph.flowchart.annotation_2;align=left;labelPosition=right;pointerEvents=1;fontSize=9;shadow=0;" vertex="1" parent="WIyWlLk6GJQsqaUBKTNV-1">
          <mxGeometry x="2926.247443762781" y="317" width="19.754601226993863" height="30" as="geometry" />
        </mxCell>
        <mxCell id="zZQvNKMM1_MNGovXTg1E-124" value="DIURNO" style="ellipse;whiteSpace=wrap;html=1;shadow=0;gradientColor=none;strokeColor=default;fontSize=9;fontFamily=Courier New;" vertex="1" parent="WIyWlLk6GJQsqaUBKTNV-1">
          <mxGeometry x="2946.002044989775" y="307" width="79.95910020449898" height="20" as="geometry" />
        </mxCell>
        <mxCell id="zZQvNKMM1_MNGovXTg1E-125" value="NOTURNO" style="ellipse;whiteSpace=wrap;html=1;shadow=0;gradientColor=none;strokeColor=default;fontSize=9;fontFamily=Courier New;" vertex="1" parent="WIyWlLk6GJQsqaUBKTNV-1">
          <mxGeometry x="2946.002044989775" y="337" width="79.95910020449898" height="20" as="geometry" />
        </mxCell>
        <mxCell id="zZQvNKMM1_MNGovXTg1E-139" style="edgeStyle=orthogonalEdgeStyle;rounded=0;orthogonalLoop=1;jettySize=auto;html=1;exitX=0;exitY=0.75;exitDx=0;exitDy=0;endArrow=none;endFill=0;fontFamily=Courier New;" edge="1" parent="WIyWlLk6GJQsqaUBKTNV-1" source="zZQvNKMM1_MNGovXTg1E-140">
          <mxGeometry relative="1" as="geometry">
            <mxPoint x="2708.006134969325" y="636" as="targetPoint" />
          </mxGeometry>
        </mxCell>
        <mxCell id="zZQvNKMM1_MNGovXTg1E-140" value="COORDENAÇÃO" style="rounded=1;whiteSpace=wrap;html=1;fontSize=12;glass=0;strokeWidth=1;shadow=0;fontFamily=Courier New;" vertex="1" parent="WIyWlLk6GJQsqaUBKTNV-1">
          <mxGeometry x="2732.4642126789367" y="457" width="112.88343558282209" height="40" as="geometry" />
        </mxCell>
        <mxCell id="zZQvNKMM1_MNGovXTg1E-141" value="" style="endArrow=none;html=1;rounded=0;fontFamily=Courier New;shadow=0;" edge="1" parent="WIyWlLk6GJQsqaUBKTNV-1">
          <mxGeometry width="50" height="50" relative="1" as="geometry">
            <mxPoint x="2788.905930470348" y="517" as="sourcePoint" />
            <mxPoint x="2788.5860940695297" y="497" as="targetPoint" />
          </mxGeometry>
        </mxCell>
        <mxCell id="zZQvNKMM1_MNGovXTg1E-142" value="ASS.INTERESSADOS" style="ellipse;whiteSpace=wrap;shadow=0;gradientColor=none;strokeColor=default;fontSize=7;fontFamily=Courier New;labelBackgroundColor=none;labelBorderColor=none;textShadow=0;fontStyle=0;horizontal=1;html=1;" vertex="1" parent="WIyWlLk6GJQsqaUBKTNV-1">
          <mxGeometry x="2748.9263803680983" y="517" width="79.95910020449898" height="30" as="geometry" />
        </mxCell>
        <mxCell id="zZQvNKMM1_MNGovXTg1E-143" value="CARIMBO" style="ellipse;whiteSpace=wrap;html=1;shadow=0;gradientColor=none;strokeColor=default;fontSize=11;fontFamily=Courier New;fontStyle=0;" vertex="1" parent="WIyWlLk6GJQsqaUBKTNV-1">
          <mxGeometry x="2748.9263803680983" y="547" width="79.95910020449898" height="30" as="geometry" />
        </mxCell>
        <mxCell id="zZQvNKMM1_MNGovXTg1E-144" value="N" style="text;html=1;align=center;verticalAlign=middle;whiteSpace=wrap;rounded=0;shadow=0;" vertex="1" parent="WIyWlLk6GJQsqaUBKTNV-1">
          <mxGeometry x="2619.5807770961146" y="232" width="56.441717791411044" height="30" as="geometry" />
        </mxCell>
        <mxCell id="zZQvNKMM1_MNGovXTg1E-145" value="N" style="text;html=1;align=center;verticalAlign=middle;whiteSpace=wrap;rounded=0;shadow=0;" vertex="1" parent="WIyWlLk6GJQsqaUBKTNV-1">
          <mxGeometry x="2676.0224948875257" y="232" width="56.441717791411044" height="30" as="geometry" />
        </mxCell>
        <mxCell id="zZQvNKMM1_MNGovXTg1E-146" value="" style="edgeStyle=orthogonalEdgeStyle;rounded=0;orthogonalLoop=1;jettySize=auto;html=1;exitX=0.018;exitY=0.493;exitDx=0;exitDy=0;endArrow=none;endFill=0;exitPerimeter=0;" edge="1" parent="WIyWlLk6GJQsqaUBKTNV-1" source="zZQvNKMM1_MNGovXTg1E-82" target="zZQvNKMM1_MNGovXTg1E-147">
          <mxGeometry relative="1" as="geometry">
            <mxPoint x="2406.9836400817994" y="412" as="targetPoint" />
            <mxPoint x="2448.3742331288345" y="192" as="sourcePoint" />
          </mxGeometry>
        </mxCell>
        <mxCell id="zZQvNKMM1_MNGovXTg1E-147" value="FAZ" style="rhombus;whiteSpace=wrap;html=1;fontSize=8;shadow=0;" vertex="1" parent="WIyWlLk6GJQsqaUBKTNV-1">
          <mxGeometry x="2375" y="287" width="75.25562372188139" height="30" as="geometry" />
        </mxCell>
        <mxCell id="zZQvNKMM1_MNGovXTg1E-148" value="" style="edgeStyle=orthogonalEdgeStyle;rounded=0;orthogonalLoop=1;jettySize=auto;html=1;exitX=1;exitY=0.5;exitDx=0;exitDy=0;entryX=0;entryY=0.5;entryDx=0;entryDy=0;endArrow=none;endFill=0;fontFamily=Courier New;" edge="1" parent="WIyWlLk6GJQsqaUBKTNV-1" source="zZQvNKMM1_MNGovXTg1E-113" target="zZQvNKMM1_MNGovXTg1E-149">
          <mxGeometry relative="1" as="geometry">
            <mxPoint x="2619.5807770961146" y="272" as="targetPoint" />
            <mxPoint x="2534.918200408998" y="477" as="sourcePoint" />
            <Array as="points">
              <mxPoint x="2542.4437627811863" y="477" />
              <mxPoint x="2542.4437627811863" y="417" />
            </Array>
          </mxGeometry>
        </mxCell>
        <mxCell id="zZQvNKMM1_MNGovXTg1E-149" value="PARA" style="rhombus;whiteSpace=wrap;html=1;fontSize=8;shadow=0;fontFamily=Courier New;" vertex="1" parent="WIyWlLk6GJQsqaUBKTNV-1">
          <mxGeometry x="2534.918200408998" y="402" width="75.25562372188139" height="30" as="geometry" />
        </mxCell>
        <mxCell id="zZQvNKMM1_MNGovXTg1E-150" value="" style="endArrow=none;html=1;rounded=0;fontFamily=Courier New;" edge="1" parent="WIyWlLk6GJQsqaUBKTNV-1" source="zZQvNKMM1_MNGovXTg1E-152">
          <mxGeometry width="50" height="50" relative="1" as="geometry">
            <mxPoint x="2406.513292433538" y="636" as="sourcePoint" />
            <mxPoint x="2708.006134969325" y="636" as="targetPoint" />
          </mxGeometry>
        </mxCell>
        <mxCell id="zZQvNKMM1_MNGovXTg1E-151" value="" style="endArrow=none;html=1;rounded=0;fontFamily=Courier New;" edge="1" parent="WIyWlLk6GJQsqaUBKTNV-1" target="zZQvNKMM1_MNGovXTg1E-152">
          <mxGeometry width="50" height="50" relative="1" as="geometry">
            <mxPoint x="2406.513292433538" y="636" as="sourcePoint" />
            <mxPoint x="2708.006134969325" y="636" as="targetPoint" />
          </mxGeometry>
        </mxCell>
        <mxCell id="zZQvNKMM1_MNGovXTg1E-152" value="PROCESSA" style="rhombus;whiteSpace=wrap;html=1;fontSize=8;shadow=0;fontFamily=Courier New;" vertex="1" parent="WIyWlLk6GJQsqaUBKTNV-1">
          <mxGeometry x="2518.4560327198365" y="620" width="75.25562372188139" height="30" as="geometry" />
        </mxCell>
        <mxCell id="zZQvNKMM1_MNGovXTg1E-153" value="1" style="text;html=1;align=center;verticalAlign=middle;whiteSpace=wrap;rounded=0;shadow=0;" vertex="1" parent="WIyWlLk6GJQsqaUBKTNV-1">
          <mxGeometry x="2410.276073619632" y="170" width="56.441717791411044" height="30" as="geometry" />
        </mxCell>
        <mxCell id="zZQvNKMM1_MNGovXTg1E-154" value="1" style="text;html=1;align=center;verticalAlign=middle;whiteSpace=wrap;rounded=0;shadow=0;" vertex="1" parent="WIyWlLk6GJQsqaUBKTNV-1">
          <mxGeometry x="2448.8445807770963" y="435" width="56.441717791411044" height="30" as="geometry" />
        </mxCell>
        <mxCell id="zZQvNKMM1_MNGovXTg1E-155" value="1" style="text;html=1;align=center;verticalAlign=middle;whiteSpace=wrap;rounded=0;shadow=0;" vertex="1" parent="WIyWlLk6GJQsqaUBKTNV-1">
          <mxGeometry x="2387.229038854806" y="471" width="56.441717791411044" height="30" as="geometry" />
        </mxCell>
        <mxCell id="zZQvNKMM1_MNGovXTg1E-156" value="1" style="text;html=1;align=center;verticalAlign=middle;whiteSpace=wrap;rounded=0;shadow=0;" vertex="1" parent="WIyWlLk6GJQsqaUBKTNV-1">
          <mxGeometry x="2696.247443762781" y="464" width="56.441717791411044" height="30" as="geometry" />
        </mxCell>
        <mxCell id="zZQvNKMM1_MNGovXTg1E-157" value="1" style="text;html=1;align=center;verticalAlign=middle;whiteSpace=wrap;rounded=0;shadow=0;" vertex="1" parent="WIyWlLk6GJQsqaUBKTNV-1">
          <mxGeometry x="2510.930470347648" y="470" width="56.441717791411044" height="30" as="geometry" />
        </mxCell>
        <mxCell id="zZQvNKMM1_MNGovXTg1E-158" value="1" style="text;html=1;align=center;verticalAlign=middle;whiteSpace=wrap;rounded=0;shadow=0;" vertex="1" parent="WIyWlLk6GJQsqaUBKTNV-1">
          <mxGeometry x="2584.7750511247446" y="265" width="56.441717791411044" height="30" as="geometry" />
        </mxCell>
        <mxCell id="zZQvNKMM1_MNGovXTg1E-127" value="" style="ellipse;whiteSpace=wrap;html=1;align=center;aspect=fixed;fillColor=none;strokeColor=none;resizable=0;perimeter=centerPerimeter;rotatable=0;allowArrows=0;points=[];outlineConnect=1;shadow=0;fontFamily=Courier New;" vertex="1" parent="WIyWlLk6GJQsqaUBKTNV-1">
          <mxGeometry x="2642.8533210073674" y="489" width="10" height="10" as="geometry" />
        </mxCell>
        <mxCell id="zZQvNKMM1_MNGovXTg1E-128" value="" style="group;shadow=0;verticalAlign=middle;horizontal=1;fontFamily=Courier New;" vertex="1" connectable="0" parent="WIyWlLk6GJQsqaUBKTNV-1">
          <mxGeometry x="1635" y="449" width="30" height="60" as="geometry" />
        </mxCell>
        <mxCell id="zZQvNKMM1_MNGovXTg1E-131" value="" style="group;shadow=0;verticalAlign=bottom;horizontal=1;fontFamily=Courier New;" vertex="1" connectable="0" parent="zZQvNKMM1_MNGovXTg1E-128">
          <mxGeometry width="30" height="60" as="geometry" />
        </mxCell>
        <mxCell id="zZQvNKMM1_MNGovXTg1E-132" value="" style="strokeWidth=1;html=1;shape=mxgraph.flowchart.annotation_1;align=left;pointerEvents=1;shadow=0;horizontal=1;fontFamily=Courier New;" vertex="1" parent="zZQvNKMM1_MNGovXTg1E-131">
          <mxGeometry width="9.482599889523108" height="40" as="geometry" />
        </mxCell>
        <mxCell id="zZQvNKMM1_MNGovXTg1E-133" value="" style="strokeWidth=1;html=1;shape=mxgraph.flowchart.annotation_1;align=left;pointerEvents=1;shadow=0;horizontal=1;fontFamily=Courier New;" vertex="1" parent="zZQvNKMM1_MNGovXTg1E-131">
          <mxGeometry y="20" width="9.482599889523108" height="40" as="geometry" />
        </mxCell>
        <mxCell id="zZQvNKMM1_MNGovXTg1E-323" value="" style="group" vertex="1" connectable="0" parent="zZQvNKMM1_MNGovXTg1E-128">
          <mxGeometry width="9.482599889523108" height="60" as="geometry" />
        </mxCell>
        <mxCell id="zZQvNKMM1_MNGovXTg1E-129" value="" style="strokeWidth=1;html=1;shape=mxgraph.flowchart.annotation_1;align=left;pointerEvents=1;shadow=0;horizontal=1;fontFamily=Courier New;" vertex="1" parent="zZQvNKMM1_MNGovXTg1E-323">
          <mxGeometry width="9.482599889523108" height="40" as="geometry" />
        </mxCell>
        <mxCell id="zZQvNKMM1_MNGovXTg1E-130" value="" style="strokeWidth=1;html=1;shape=mxgraph.flowchart.annotation_1;align=left;pointerEvents=1;shadow=0;horizontal=1;fontFamily=Courier New;" vertex="1" parent="zZQvNKMM1_MNGovXTg1E-323">
          <mxGeometry y="20" width="9.482599889523108" height="40" as="geometry" />
        </mxCell>
      </root>
    </mxGraphModel>
  </diagram>
</mxfile>
